<?xml version="1.0" encoding="UTF-8"?>
<!DOCTYPE svg PUBLIC "-//W3C//DTD SVG 1.1//EN" "http://www.w3.org/Graphics/SVG/1.1/DTD/svg11.dtd">
<svg width="200" height="200" xmlns="http://www.w3.org/2000/svg" xmlns:svg="http://www.w3.org/2000/svg">
	<path style="opacity: 0.4" stroke="red" fill="orange" fill-width="3" d="m34.8821,46.00842c-3.06632,-6.38039 -1.43339,-10.03643 0.9233,-13.48093c2.58081,-3.77223 3.24593,-7.50625 3.24593,-7.50625s2.0288,2.63741 1.21721,6.76238c3.58417,-3.9898 4.26058,-10.34655 3.71935,-12.78106c8.10157,5.66162 11.56402,17.92061 6.89781,27.00587c24.81825,-14.04201 6.17336,-35.05317 2.92735,-37.41996c1.08203,2.3667 1.28726,6.37332 -0.89854,8.31775c-3.70011,-14.03071 -12.84878,-16.90621 -12.84878,-16.90621c1.08203,7.23572 -3.92216,15.14794 -8.7477,21.06008c-0.16951,-2.88525 -0.34964,-4.87618 -1.86688,-7.6372c-0.34058,5.24134 -4.34616,9.51383 -5.43086,14.76535c-1.46928,7.11176 1.10058,12.31893 10.86182,17.82019z"/>
</svg>
